<?xml version="1.0" encoding="UTF-8"?>
<svg width="31px" height="31px" viewBox="0 0 31 31" version="1.1" xmlns="http://www.w3.org/2000/svg" xmlns:xlink="http://www.w3.org/1999/xlink">
    <!-- Generator: Sketch 46.2 (44496) - http://www.bohemiancoding.com/sketch -->
    <title>Page 1</title>
    <desc>Created with Sketch.</desc>
    <defs></defs>
    <g id="Symbols" stroke="none" stroke-width="1" fill="none" fill-rule="evenodd">
        <g id="V2-TOP-NAVIGATION-PROGRESS" transform="translate(-865.000000, -127.000000)">
            <g id="Group-14" transform="translate(1.000000, 40.000000)">
                <g id="Group-7" transform="translate(401.000000, 87.267081)">
                    <g id="Page-1" transform="translate(464.000000, 0.732919)">
                        <path d="M0.467741935,3.27419355 C0.467741935,1.68387097 1.68387097,0.467741935 3.27419355,0.467741935 C4.86451613,0.467741935 6.08064516,1.68387097 6.08064516,3.27419355 L6.08064516,5.14516129 L0.467741935,5.14516129 L0.467741935,3.27419355 Z" id="Fill-1" fill-opacity="0" fill="#000000"></path>
                        <path d="M0.467741935,3.27419355 C0.467741935,1.68387097 1.68387097,0.467741935 3.27419355,0.467741935 C4.86451613,0.467741935 6.08064516,1.68387097 6.08064516,3.27419355 L6.08064516,5.14516129 L0.467741935,5.14516129 L0.467741935,3.27419355 Z" id="Stroke-3" stroke="#444444" stroke-width="0.941094" stroke-linecap="square"></path>
                        <path d="M23.8548387,23.8548387 L23.8548387,3.27419355 C23.8548387,1.68387097 22.6387097,0.467741935 21.0483871,0.467741935 L3.27419355,0.467741935 C4.86451613,0.467741935 6.08064516,1.68387097 6.08064516,3.27419355 L6.08064516,25.7258065 C6.08064516,27.316129 7.29677419,28.5322581 8.88709677,28.5322581 L23.8548387,28.5322581" id="Fill-4" fill-opacity="0" fill="#000000"></path>
                        <path d="M23.8548387,23.8548387 L23.8548387,3.27419355 C23.8548387,1.68387097 22.6387097,0.467741935 21.0483871,0.467741935 L3.27419355,0.467741935 C4.86451613,0.467741935 6.08064516,1.68387097 6.08064516,3.27419355 L6.08064516,25.7258065 C6.08064516,27.316129 7.29677419,28.5322581 8.88709677,28.5322581 L23.8548387,28.5322581" id="Stroke-5" stroke="#3D3E3C" stroke-width="0.941094"></path>
                        <path d="M11.6935484,25.7258065 C11.6935484,27.316129 10.4774194,28.5322581 8.88709677,28.5322581 L25.7258065,28.5322581 C27.316129,28.5322581 28.5322581,27.316129 28.5322581,25.7258065 L28.5322581,23.8548387 L11.6935484,23.8548387 L11.6935484,25.7258065 Z" id="Fill-6" fill-opacity="0" fill="#000000"></path>
                        <path d="M11.6935484,25.7258065 C11.6935484,27.316129 10.4774194,28.5322581 8.88709677,28.5322581 L25.7258065,28.5322581 C27.316129,28.5322581 28.5322581,27.316129 28.5322581,25.7258065 L28.5322581,23.8548387 L11.6935484,23.8548387 L11.6935484,25.7258065 Z" id="Stroke-7" stroke="#444444" stroke-width="0.941094" stroke-linecap="square"></path>
                        <path d="M10.7580645,7.9516129 L19.1774194,7.9516129" id="Fill-8" fill-opacity="0" fill="#000000"></path>
                        <path d="M10.7580645,7.9516129 L19.1774194,7.9516129" id="Stroke-9" stroke="#444444" stroke-width="0.941094" stroke-linecap="square"></path>
                        <path d="M10.7580645,12.6290323 L19.1774194,12.6290323" id="Fill-10" fill-opacity="0" fill="#000000"></path>
                        <path d="M10.7580645,12.6290323 L19.1774194,12.6290323" id="Stroke-11" stroke="#444444" stroke-width="0.941094" stroke-linecap="square"></path>
                        <path d="M10.7580645,17.3064516 L19.1774194,17.3064516" id="Fill-12" fill-opacity="0" fill="#000000"></path>
                        <path d="M10.7580645,17.3064516 L19.1774194,17.3064516" id="Stroke-13" stroke="#444444" stroke-width="0.941094" stroke-linecap="square"></path>
                    </g>
                </g>
            </g>
        </g>
    </g>
</svg>