<?xml version="1.0" encoding="UTF-8"?>
<svg width="28px" height="24px" viewBox="0 0 28 24" version="1.1" xmlns="http://www.w3.org/2000/svg" xmlns:xlink="http://www.w3.org/1999/xlink">
    <!-- Generator: Sketch 46.2 (44496) - http://www.bohemiancoding.com/sketch -->
    <title>Group 10</title>
    <desc>Created with Sketch.</desc>
    <defs></defs>
    <g id="Symbols" stroke="none" stroke-width="1" fill="none" fill-rule="evenodd" stroke-linecap="round" stroke-linejoin="round">
        <g id="V2-TOP-NAVIGATION-PROGRESS" transform="translate(-533.000000, -130.000000)" stroke="#3D3E3C" stroke-width="0.9">
            <g id="Group-14" transform="translate(1.000000, 40.000000)">
                <g id="Group-7" transform="translate(401.000000, 87.267081)">
                    <g id="Group" transform="translate(104.000000, 3.000000)">
                        <g id="Group-10" transform="translate(28.000000, 0.000000)">
                            <polyline id="Shape" points="25.8704557 8.52773613 25.8704557 23.1467124 0.0126369522 23.1467124 0.0126369522 2.03041336 21.563405 2.03041336"></polyline>
                            <path d="M0.0126369522,6.09124009 L17.2537686,6.09124009" id="Shape"></path>
                            <path d="M18.1156958,10.1520668 L15.529914,7.71557079 L22.7520027,0.910437353 C23.4656785,0.237964446 24.6241088,0.237964446 25.3377846,0.910437353 L25.3377846,0.910437353 C26.0514604,1.58291026 26.0514604,2.67446048 25.3377846,3.34693339 L18.1156958,10.1520668 Z" id="Shape"></path>
                            <path d="M11.1401183,10.8618993 C12.1442636,9.91572671 13.7724442,9.91572671 14.7774514,10.8618993 C15.7824587,11.808072 15.7815967,13.3430645 14.7774514,14.2892371 C13.7733062,15.2354097 10.3583502,15.0250589 10.3583502,15.0250589 C10.3583502,15.0250589 10.2644001,11.6870593 11.1401183,10.8618993 Z" id="Shape"></path>
                        </g>
                    </g>
                </g>
            </g>
        </g>
    </g>
</svg>