<?xml version="1.0" encoding="UTF-8"?>
<svg width="279px" height="49px" viewBox="0 0 279 49" version="1.1" xmlns="http://www.w3.org/2000/svg" xmlns:xlink="http://www.w3.org/1999/xlink">
    <!-- Generator: Sketch 46.2 (44496) - http://www.bohemiancoding.com/sketch -->
    <title>Gifted_primary_colour (1)</title>
    <desc>Created with Sketch.</desc>
    <defs></defs>
    <g id="Symbols" stroke="none" stroke-width="1" fill="none" fill-rule="evenodd">
        <g id="Top-Navigation_-Not-Logged-In" transform="translate(-582.000000, -36.000000)" fill-rule="nonzero">
            <g id="Gifted_primary_colour-(1)" transform="translate(582.000000, 36.000000)">
                <path d="M277.861224,38.3833333 C275.33965,35.6066667 272.248688,39.0366667 272.248688,40.8333333 C272.330029,39.0366667 269.48309,35.4433333 266.717493,38.0566667 C265.822741,38.955 266.066764,40.67 266.880175,41.9766667 C268.506997,44.59 272.086006,46.8766667 272.086006,46.8766667 C272.086006,46.8766667 276.153061,44.4266667 277.942566,41.9766667 C278.837318,40.67 278.755977,39.3633333 277.861224,38.3833333 Z" id="Shape" fill="#C99BA3"></path>
                <g id="Group" transform="translate(93.542274, 1.633333)" fill="#232323">
                    <polygon id="Shape" points="0.732069971 0.163333333 22.612828 0.163333333 23.1008746 2.36833333 2.92827988 2.36833333 2.92827988 21.9683333 16.593586 21.9683333 16.593586 24.1733333 2.92827988 24.1733333 2.92827988 45.1616667 0.732069971 45.8966667"></polygon>
                    <polygon id="Shape" points="51.0822157 2.36833333 37.4982507 2.36833333 37.9049563 0.163333333 66.4556851 0.163333333 66.8623907 2.36833333 53.2784257 2.36833333 53.2784257 45.1616667 51.0822157 45.8966667 51.0822157 2.36833333"></polygon>
                    <polygon id="Shape" points="87.441691 0.163333333 107.776968 0.163333333 108.509038 2.36833333 89.5565598 2.36833333 89.5565598 21.2333333 106.231487 21.2333333 106.231487 23.4383333 89.5565598 23.4383333 89.5565598 43.365 109.973178 43.365 108.834402 45.57 87.3603499 45.57 87.3603499 0.163333333"></polygon>
                    <path d="M131.772595,0.163333333 L136.409038,0.163333333 C139.581341,0.163333333 142.509621,0.653333333 145.275219,1.715 C148.040816,2.77666667 150.48105,4.32833333 152.595918,6.28833333 C154.710787,8.33 156.337609,10.6983333 157.557726,13.475 C158.777843,16.2516667 159.34723,19.355 159.34723,22.785 C159.34723,25.48 158.859184,28.175 157.964431,30.7883333 C157.069679,33.4833333 155.605539,35.9333333 153.572012,38.1383333 C151.538484,40.3433333 148.935569,42.14 145.681924,43.4466667 C142.42828,44.7533333 138.605248,45.4883333 134.131487,45.4883333 L131.772595,45.4883333 L131.772595,0.163333333 Z M133.968805,43.4466667 L135.188921,43.4466667 C138.279883,43.4466667 141.208163,42.9566667 143.89242,42.0583333 C146.576676,41.0783333 148.935569,39.7716667 150.969096,37.8933333 C153.002624,36.0966667 154.548105,33.8916667 155.605539,31.36 C156.662974,28.8283333 157.232362,25.97 157.232362,22.9483333 C157.232362,19.845 156.662974,17.0683333 155.605539,14.5366667 C154.548105,12.005 153.002624,9.8 150.969096,8.00333333 C148.935569,6.20666667 146.576676,4.81833333 143.89242,3.83833333 C141.208163,2.85833333 138.361224,2.45 135.188921,2.45 L133.968805,2.45 L133.968805,43.4466667 Z" id="Shape"></path>
                </g>
                <polygon id="Shape" fill="#232323" points="69.6279883 46.8766667 67.4317784 47.6116667 67.4317784 1.715 69.6279883 0.98"></polygon>
                <path d="M47.5845481,47.6933333 L47.3405248,30.2166667 L31.2349854,30.4616667 L30.5029155,32.2583333 L44.7376093,32.095 C41.5653061,40.425 33.5125364,46.3866667 24.158309,46.3866667 C12.038484,46.3866667 2.1148688,36.4233333 2.1148688,24.255 C2.1148688,12.0866667 12.038484,2.12333333 24.158309,2.12333333 C30.7469388,2.12333333 36.6848397,5.06333333 40.6705539,9.63666667 L40.751895,6.69666667 C37.2542274,3.185 30.909621,0 24.158309,0 C10.8183673,0 0,10.8616667 0,24.255 C0,37.6483333 10.8183673,48.51 24.158309,48.51 C33.5125364,48.51 41.6466472,43.12 45.6323615,35.28 L45.7950437,48.51 L47.5845481,47.6933333 Z" id="Shape" fill="#232323"></path>
            </g>
        </g>
    </g>
</svg>