<?xml version="1.0" encoding="UTF-8"?>
<svg width="180px" height="32px" viewBox="0 0 180 32" version="1.1" xmlns="http://www.w3.org/2000/svg" xmlns:xlink="http://www.w3.org/1999/xlink">
    <!-- Generator: Sketch 46.2 (44496) - http://www.bohemiancoding.com/sketch -->
    <title>Group 3</title>
    <desc>Created with Sketch.</desc>
    <defs></defs>
    <g id="Symbols" stroke="none" stroke-width="1" fill="none" fill-rule="evenodd">
        <g id="Bottom-Nav-Final-" transform="translate(-158.000000, -38.000000)" fill-rule="nonzero">
            <g id="Group-10">
                <g id="Gifted_primary_colour-(1)" transform="translate(158.000000, 38.000000)">
                    <g id="Group-3">
                        <path d="M179.265306,25.0666667 C177.638484,23.2533333 175.644315,25.4933333 175.644315,26.6666667 C175.696793,25.4933333 173.860058,23.1466667 172.075802,24.8533333 C171.498542,25.44 171.655977,26.56 172.180758,27.4133333 C173.230321,29.12 175.539359,30.6133333 175.539359,30.6133333 C175.539359,30.6133333 178.163265,29.0133333 179.317784,27.4133333 C179.895044,26.56 179.842566,25.7066667 179.265306,25.0666667 Z" id="Shape" fill="#C99BA3"></path>
                        <g id="Group" transform="translate(60.349854, 1.066667)" fill="#FFFFFF">
                            <polygon id="Shape" points="0.472303207 0.106666667 14.5889213 0.106666667 14.9037901 1.54666667 1.88921283 1.54666667 1.88921283 14.3466667 10.7055394 14.3466667 10.7055394 15.7866667 1.88921283 15.7866667 1.88921283 29.4933333 0.472303207 29.9733333"></polygon>
                            <polygon id="Shape" points="32.9562682 1.54666667 24.1924198 1.54666667 24.4548105 0.106666667 42.8746356 0.106666667 43.1370262 1.54666667 34.3731778 1.54666667 34.3731778 29.4933333 32.9562682 29.9733333 32.9562682 1.54666667"></polygon>
                            <polygon id="Shape" points="56.4139942 0.106666667 69.5335277 0.106666667 70.0058309 1.54666667 57.7784257 1.54666667 57.7784257 13.8666667 68.5364431 13.8666667 68.5364431 15.3066667 57.7784257 15.3066667 57.7784257 28.32 70.9504373 28.32 70.2157434 29.76 56.361516 29.76 56.361516 0.106666667"></polygon>
                            <path d="M85.0145773,0.106666667 L88.0058309,0.106666667 C90.0524781,0.106666667 91.941691,0.426666667 93.7259475,1.12 C95.5102041,1.81333333 97.0845481,2.82666667 98.4489796,4.10666667 C99.8134111,5.44 100.862974,6.98666667 101.650146,8.8 C102.437318,10.6133333 102.804665,12.64 102.804665,14.88 C102.804665,16.64 102.489796,18.4 101.912536,20.1066667 C101.335277,21.8666667 100.390671,23.4666667 99.0787172,24.9066667 C97.7667638,26.3466667 96.0874636,27.52 93.9883382,28.3733333 C91.8892128,29.2266667 89.4227405,29.7066667 86.5364431,29.7066667 L85.0145773,29.7066667 L85.0145773,0.106666667 Z M86.4314869,28.3733333 L87.2186589,28.3733333 C89.212828,28.3733333 91.1020408,28.0533333 92.8338192,27.4666667 C94.5655977,26.8266667 96.0874636,25.9733333 97.3994169,24.7466667 C98.7113703,23.5733333 99.7084548,22.1333333 100.390671,20.48 C101.072886,18.8266667 101.440233,16.96 101.440233,14.9866667 C101.440233,12.96 101.072886,11.1466667 100.390671,9.49333333 C99.7084548,7.84 98.7113703,6.4 97.3994169,5.22666667 C96.0874636,4.05333333 94.5655977,3.14666667 92.8338192,2.50666667 C91.1020408,1.86666667 89.2653061,1.6 87.2186589,1.6 L86.4314869,1.6 L86.4314869,28.3733333 Z" id="Shape"></path>
                        </g>
                        <polygon id="Shape" fill="#FFFFFF" points="44.9212828 30.6133333 43.5043732 31.0933333 43.5043732 1.12 44.9212828 0.64"></polygon>
                        <path d="M30.6997085,31.1466667 L30.5422741,19.7333333 L20.1516035,19.8933333 L19.6793003,21.0666667 L28.8629738,20.96 C26.8163265,26.4 21.6209913,30.2933333 15.5860058,30.2933333 C7.76676385,30.2933333 1.36443149,23.7866667 1.36443149,15.84 C1.36443149,7.89333333 7.76676385,1.38666667 15.5860058,1.38666667 C19.8367347,1.38666667 23.6676385,3.30666667 26.2390671,6.29333333 L26.2915452,4.37333333 C24.0349854,2.08 19.941691,0 15.5860058,0 C6.97959184,0 0,7.09333333 0,15.84 C0,24.5866667 6.97959184,31.68 15.5860058,31.68 C21.6209913,31.68 26.8688047,28.16 29.4402332,23.04 L29.5451895,31.68 L30.6997085,31.1466667 Z" id="Shape" fill="#FFFFFF"></path>
                    </g>
                </g>
            </g>
        </g>
    </g>
</svg>