<?xml version="1.0" encoding="UTF-8"?>
<svg width="81px" height="81px" viewBox="0 0 81 81" version="1.1" xmlns="http://www.w3.org/2000/svg" xmlns:xlink="http://www.w3.org/1999/xlink">
    <!-- Generator: Sketch 46.2 (44496) - http://www.bohemiancoding.com/sketch -->
    <title>Group 6</title>
    <desc>Created with Sketch.</desc>
    <defs></defs>
    <g id="Gifted-Desktop" stroke="none" stroke-width="1" fill="none" fill-rule="evenodd">
        <g id="51_Home-Page-Logged-In" transform="translate(-212.000000, -1099.000000)">
            <g id="Group" transform="translate(178.000000, 1100.000000)">
                <g id="Page-1" transform="translate(35.000000, 0.000000)">
                    <g id="Group-6">
                        <polyline id="Stroke-5" stroke="#3D3E3C" stroke-width="2.6" points="13.3709677 26.4354839 0.306451613 34.0129032 0.306451613 78.6935484 78.6935484 78.6935484 78.6935484 34.0129032 65.6290323 26.4354839"></polyline>
                        <polyline id="Stroke-7" stroke="#3D3E3C" stroke-width="2.6" points="13.3709677 41.3290323 13.3709677 0.306451613 65.6290323 0.306451613 65.6290323 41.0677419"></polyline>
                        <path d="M0.306451613,34.0129032 L78.6935484,78.6935484" id="Stroke-9" stroke="#3D3E3C" stroke-width="2.6"></path>
                        <path d="M78.6935484,34.0129032 L38.4548387,55.7" id="Stroke-11" stroke="#3D3E3C" stroke-width="2.6"></path>
                        <path d="M44.0416667,18 C42.6958333,18 41.4208333,18.5565217 40.5,19.4608696 C39.5791667,18.5565217 38.3041667,18 36.9583333,18 C34.1958333,18 32,20.1565217 32,22.8695652 C32,27.3217391 39.7208333,33.5826087 40.075,33.8608696 C40.2166667,34 40.3583333,34 40.5,34 C40.6416667,34 40.7833333,33.9304348 40.925,33.8608696 C41.2791667,33.5826087 49,27.3217391 49,22.8695652 C49,20.1565217 46.8041667,18 44.0416667,18 Z" id="Shape" fill="#C99BA3" fill-rule="nonzero"></path>
                    </g>
                </g>
            </g>
        </g>
    </g>
</svg>