<?xml version="1.0" encoding="UTF-8"?>
<svg width="20px" height="21px" viewBox="0 0 20 21" version="1.1" xmlns="http://www.w3.org/2000/svg" xmlns:xlink="http://www.w3.org/1999/xlink">
    <!-- Generator: Sketch 46.2 (44496) - http://www.bohemiancoding.com/sketch -->
    <title>Page 1</title>
    <desc>Created with Sketch.</desc>
    <defs></defs>
    <g id="Gifted-Desktop" stroke="none" stroke-width="1" fill="none" fill-rule="evenodd">
        <g id="21_Dashboard-" transform="translate(-1260.000000, -993.000000)">
            <g id="Group-8" transform="translate(982.000000, 590.000000)">
                <g id="Group-4" transform="translate(14.000000, 403.000000)">
                    <g id="Page-1" transform="translate(264.000000, 0.000000)">
                        <polyline id="Fill-1" fill="#3D3E3C" points="17.2608696 6.36 17.2608696 20.16 2.65217391 20.16 2.65217391 6.36"></polyline>
                        <polyline id="Stroke-3" stroke="#FFFFFF" stroke-width="0.648" stroke-linecap="square" points="17.2608696 6.36 17.2608696 20.16 2.65217391 20.16 2.65217391 6.36"></polyline>
                        <path d="M9.95652174,10.96 L9.95652174,17.4" id="Fill-4" fill="#3D3E3C"></path>
                        <path d="M9.95652174,10.96 L9.95652174,17.4" id="Stroke-5" stroke="#FFFFFF" stroke-width="0.648" stroke-linecap="square"></path>
                        <path d="M6.30434783,10.96 L6.30434783,17.4" id="Fill-6" fill="#3D3E3C"></path>
                        <path d="M6.30434783,10.96 L6.30434783,17.4" id="Stroke-7" stroke="#FFFFFF" stroke-width="0.648" stroke-linecap="square"></path>
                        <path d="M12.6956522,10.96 L12.6956522,17.4" id="Fill-8" fill="#3D3E3C"></path>
                        <path d="M12.6956522,10.96 L12.6956522,17.4" id="Stroke-9" stroke="#FFFFFF" stroke-width="0.648" stroke-linecap="square"></path>
                        <polyline id="Fill-10" fill="#3D3E3C" points="6.30434783 3.6 6.30434783 0.84 12.6956522 0.84 12.6956522 3.6"></polyline>
                        <polyline id="Stroke-11" stroke="#FFFFFF" stroke-width="0.648" stroke-linecap="square" points="6.30434783 3.6 6.30434783 0.84 12.6956522 0.84 12.6956522 3.6"></polyline>
                        <polygon id="Fill-12" fill="#3D3E3C" points="0.826086957 3.6 19.0869565 3.6 19.0869565 7.28 0.826086957 7.28"></polygon>
                        <polygon id="Stroke-13" stroke="#FFFFFF" stroke-width="0.648" fill="#3D3E3C" stroke-linecap="square" points="0.826086957 3.6 19.0869565 3.6 19.0869565 7.28 0.826086957 7.28"></polygon>
                    </g>
                </g>
            </g>
        </g>
    </g>
</svg>