<?xml version="1.0" encoding="UTF-8"?>
<svg width="18px" height="17px" viewBox="0 0 18 17" version="1.1" xmlns="http://www.w3.org/2000/svg" xmlns:xlink="http://www.w3.org/1999/xlink">
    <!-- Generator: Sketch 46.2 (44496) - http://www.bohemiancoding.com/sketch -->
    <title>holidays-24px-glyph_message</title>
    <desc>Created with Sketch.</desc>
    <defs></defs>
    <g id="Gifted-Desktop" stroke="none" stroke-width="1" fill="none" fill-rule="evenodd">
        <g id="21_Dashboard-" transform="translate(-1180.000000, -995.000000)" fill-rule="nonzero" fill="#3D3E3C">
            <g id="Group-8" transform="translate(982.000000, 590.000000)">
                <g id="Group-4" transform="translate(14.000000, 403.000000)">
                    <g id="holidays-24px-glyph_message" transform="translate(184.000000, 2.000000)">
                        <path d="M17.6901856,6.3289684 L14.6901856,4.08813481 C14.3532715,3.83684753 13.8852539,3.914573 13.6428223,4.26018733 C13.3996582,4.60580165 13.4743652,5.0887562 13.8098144,5.33928891 L15.8484191,6.86210494 L9,10.7108376 L2.1515808,6.86210494 L4.19018558,5.33928891 C4.52563478,5.0887562 4.60034183,4.60580165 4.35717773,4.26018733 C4.11401363,3.914573 3.64599608,3.8376021 3.30981443,4.08813481 L0.309814425,6.3289684 C0.114990225,6.47423209 0,6.70703125 0,6.95454545 L0,16.2272727 C0,16.6540083 0.3354492,17 0.75,17 L17.25,17 C17.6645508,17 18,16.6540083 18,16.2272727 L18,6.95454545 C18,6.70703125 17.8850098,6.47423209 17.6901856,6.3289684 Z" id="Shape"></path>
                        <path d="M8.52172852,7.31223365 C8.6608887,7.43033118 8.83007812,7.48956853 9,7.48956853 C9.16992187,7.48956853 9.3391113,7.4303311 9.47827147,7.31223365 C10.0246582,6.84701257 12.75,4.42695756 12.75,2.49664859 C12.75,1.09683505 11.7106933,0 10.3842773,0 C9.87524415,0 9.3947754,0.158469441 9,0.444091773 C8.6052246,0.158469441 8.12475585,0 7.61572267,0 C6.28930665,0 5.25,1.09683505 5.25,2.49664859 C5.25,4.42695756 7.97534182,6.84701257 8.52172852,7.31223365 Z" id="Shape"></path>
                    </g>
                </g>
            </g>
        </g>
    </g>
</svg>