<?xml version="1.0" encoding="UTF-8"?>
<svg width="22px" height="20px" viewBox="0 0 22 20" version="1.1" xmlns="http://www.w3.org/2000/svg" xmlns:xlink="http://www.w3.org/1999/xlink">
    <!-- Generator: Sketch 46.2 (44496) - http://www.bohemiancoding.com/sketch -->
    <title>Group 9</title>
    <desc>Created with Sketch.</desc>
    <defs></defs>
    <g id="Gifted-Desktop" stroke="none" stroke-width="1" fill="none" fill-rule="evenodd">
        <g id="21_Dashboard-" transform="translate(-1093.000000, -993.000000)" fill-rule="nonzero" fill="#3D3E3C">
            <g id="Group-8" transform="translate(982.000000, 590.000000)">
                <g id="Group-4" transform="translate(14.000000, 403.000000)">
                    <g id="shopping-24px-glyph-2_customer-support" transform="translate(97.000000, 0.000000)">
                        <g id="Group-9">
                            <path d="M12.8333333,17.3733333 C12.8333333,16.6209524 12.4116667,15.9419048 11.75075,15.6342857 C10.5398333,15.072381 8.47825,14.2857143 6.41666667,14.2857143 C4.35508333,14.2857143 2.2935,15.072381 1.08258333,15.6342857 C0.421666667,15.9419048 0,16.6209524 0,17.3733333 L0,20 L12.8333333,20 L12.8333333,17.3733333 Z" id="Shape"></path>
                            <path d="M6.41666667,13.3333333 L6.41666667,13.3333333 C4.85833333,13.3333333 3.66666667,12.0952381 3.66666667,10.4761905 L3.66666667,9.52380952 C3.66666667,7.9047619 4.85833333,6.66666667 6.41666667,6.66666667 L6.41666667,6.66666667 C7.975,6.66666667 9.16666667,7.9047619 9.16666667,9.52380952 L9.16666667,10.4761905 C9.16666667,12.0952381 7.975,13.3333333 6.41666667,13.3333333 Z" id="Shape"></path>
                            <path d="M11,0.952380952 L11,10.4761905 L14.6666667,7.61904762 L21.0833333,7.61904762 C21.5893333,7.61904762 22,7.19238095 22,6.66666667 L22,0.952380952 C22,0.426666667 21.5893333,0 21.0833333,0 L11.9166667,0 C11.4106667,0 11,0.426666667 11,0.952380952 Z" id="Shape"></path>
                        </g>
                    </g>
                </g>
            </g>
        </g>
    </g>
</svg>