<?xml version="1.0" encoding="UTF-8"?>
<svg width="19px" height="19px" viewBox="0 0 19 19" version="1.1" xmlns="http://www.w3.org/2000/svg" xmlns:xlink="http://www.w3.org/1999/xlink">
    <!-- Generator: Sketch 46.2 (44496) - http://www.bohemiancoding.com/sketch -->
    <title>shopping-24px-glyph_newsletter</title>
    <desc>Created with Sketch.</desc>
    <defs></defs>
    <g id="Gifted-Desktop" stroke="none" stroke-width="1" fill="none" fill-rule="evenodd">
        <g id="21_Dashboard-" transform="translate(-1014.000000, -994.000000)" fill-rule="nonzero" fill="#3D3E3C">
            <g id="Group-8" transform="translate(982.000000, 590.000000)">
                <g id="Group-4" transform="translate(14.000000, 403.000000)">
                    <g id="shopping-24px-glyph_newsletter" transform="translate(18.000000, 1.000000)">
                        <path d="M9.89583333,14.1708333 C9.7375,14.25 9.65833333,14.25 9.5,14.25 C9.34166667,14.25 9.2625,14.25 9.10416667,14.1708333 L0,9.2625 L0,18.2083333 C0,18.6833333 0.316666667,19 0.791666667,19 L18.2083333,19 C18.6833333,19 19,18.6833333 19,18.2083333 L19,9.2625 L9.89583333,14.1708333 Z" id="Shape"></path>
                        <path d="M4.75,9.975 L4.75,9.975 L4.75,9.975 L4.75,1.58333333 L14.25,1.58333333 L14.25,6.33333333 L14.25,9.975 L18.2875,7.75833333 L15.8333333,5.9375 L15.8333333,0.791666667 C15.8333333,0.316666667 15.5166667,0 15.0416667,0 L3.95833333,0 C3.48333333,0 3.16666667,0.316666667 3.16666667,0.791666667 L3.16666667,6.01666667 L0.7125,7.8375 L4.75,9.975 Z" id="Shape"></path>
                        <rect id="Rectangle-path" x="6.33333333" y="3.95833333" width="6.33333333" height="1.58333333"></rect>
                        <rect id="Rectangle-path" x="6.33333333" y="7.125" width="6.33333333" height="1.58333333"></rect>
                    </g>
                </g>
            </g>
        </g>
    </g>
</svg>