<?xml version="1.0" encoding="UTF-8"?>
<svg width="47px" height="42px" viewBox="0 0 47 42" version="1.1" xmlns="http://www.w3.org/2000/svg" xmlns:xlink="http://www.w3.org/1999/xlink">
    <!-- Generator: Sketch 46.2 (44496) - http://www.bohemiancoding.com/sketch -->
    <title>Group 6</title>
    <desc>Created with Sketch.</desc>
    <defs></defs>
    <g id="Symbols" stroke="none" stroke-width="1" fill="none" fill-rule="evenodd">
        <g id="Cash-Out" transform="translate(-486.000000, -226.000000)">
            <g id="Group-19" transform="translate(67.000000, 48.000000)">
                <g id="Group-6" transform="translate(365.000000, 112.000000)" fill-rule="nonzero" fill="#3D3E3C">
                    <g id="users-24px-glyph_single-body" transform="translate(65.000000, 70.000000)">
                        <path d="M8,7 L8,7 C5.79066667,7 4,5.43316667 4,3.5 L4,3.5 C4,1.56683333 5.79066667,0 8,0 L8,0 C10.2093333,0 12,1.56683333 12,3.5 L12,3.5 C12,5.43316667 10.2093333,7 8,7 Z" id="Shape"></path>
                        <path d="M10.6666667,29 L5.33333333,29 C4.59733333,29 4,28.468 4,27.8125 L4,20.6875 L0,20.6875 L0,13.5625 C0,11.5948125 1.79066667,10 4,10 L12,10 C14.2093333,10 16,11.5948125 16,13.5625 L16,20.6875 L12,20.6875 L12,27.8125 C12,28.468 11.4026667,29 10.6666667,29 Z" id="Shape"></path>
                    </g>
                </g>
                <path d="M1.25,1.25 L1.25,236.75 L583.75,236.75 L583.75,1.25 L1.25,1.25 Z" id="Rectangle-6" stroke="#C99BA3" stroke-width="2.5"></path>
                <g id="ui-24px-glyph-2_favourite-28" transform="translate(437.000000, 214.630872)"></g>
            </g>
        </g>
    </g>
</svg>