<?xml version="1.0" encoding="UTF-8"?>
<svg width="36px" height="37px" viewBox="0 0 36 37" version="1.1" xmlns="http://www.w3.org/2000/svg" xmlns:xlink="http://www.w3.org/1999/xlink">
    <!-- Generator: Sketch 46.2 (44496) - http://www.bohemiancoding.com/sketch -->
    <title>Cash Out</title>
    <desc>Created with Sketch.</desc>
    <defs></defs>
    <g id="Symbols" stroke="none" stroke-width="1" fill="none" fill-rule="evenodd">
        <g id="Cash-Out" transform="translate(-342.000000, -126.000000)">
            <g id="Group-19" transform="translate(67.000000, 48.000000)">
                <text id="$12,000" font-family="Raleway-Medium, Raleway" font-size="36" font-weight="400" fill="#C99BA3">
                    <tspan x="226.62" y="71">$12,000</tspan>
                </text>
                <g id="shopping-24px-glyph_gift" transform="translate(281.000000, 83.000000)" fill-rule="nonzero" fill="#3D3E3C">
                    <path d="M23,3.94630872 L18.816,3.94630872 C18.928,3.63652349 19,3.30700671 19,2.95973154 C19,1.32793289 17.654,0 16,0 C14.026,0 12.762,1.28551007 12,2.51083893 C11.239,1.28551007 9.974,0 8,0 C6.346,0 5,1.32793289 5,2.95973154 C5,3.30700671 5.072,3.63652349 5.184,3.94630872 L1,3.94630872 C0.448,3.94630872 0,4.38730872 0,4.93288591 L0,6.90604027 C0,7.45161745 0.448,7.89261745 1,7.89261745 L23,7.89261745 C23.552,7.89261745 24,7.45161745 24,6.90604027 L24,4.93288591 C24,4.38730872 23.552,3.94630872 23,3.94630872 Z M16,1.97315436 C16.551,1.97315436 17,2.41514094 17,2.95973154 C17,3.50432215 16.551,3.94630872 16,3.94630872 L13.469,3.94630872 C13.939,3.04161745 14.757,1.97315436 16,1.97315436 Z M7,2.95973154 C7,2.41514094 7.449,1.97315436 8,1.97315436 C9.243,1.97315436 10.061,3.04161745 10.531,3.94630872 L8,3.94630872 C7.449,3.94630872 7,3.50432215 7,2.95973154 Z" id="Shape"></path>
                    <path d="M11,9.86577181 L2,9.86577181 L2,22.6912752 C2,23.2358658 2.448,23.6778523 3,23.6778523 L11,23.6778523 L11,9.86577181 Z" id="Shape"></path>
                    <path d="M22,9.86577181 L13,9.86577181 L13,23.6778523 L21,23.6778523 C21.552,23.6778523 22,23.2358658 22,22.6912752 L22,9.86577181 Z" id="Shape"></path>
                </g>
                <path d="M1.25,1.25 L1.25,236.75 L583.75,236.75 L583.75,1.25 L1.25,1.25 Z" id="Rectangle-6" stroke="#C99BA3" stroke-width="2.5"></path>
            </g>
        </g>
    </g>
</svg>